<svg width="960" height="320" viewBox="0 0 960 320" fill="none" xmlns="http://www.w3.org/2000/svg" role="img" aria-labelledby="title desc">
  <title id="title">ld000 pixel profile title screen</title>
  <desc id="desc">A warm pixel terminal desk banner with GitHub counters.</desc>
  <style>
    .label { font-family: "Courier New", monospace; font-weight: 700; }
    .small { font-family: "Courier New", monospace; font-weight: 700; }
  </style>
  <rect x="0" y="0" width="960" height="320" fill="#15131A"/>
  <rect x="32" y="32" width="896" height="256" fill="#272034"/>
  <rect x="40" y="40" width="880" height="240" fill="#15131A"/>
  <rect x="0" y="244" width="960" height="76" fill="#211A25"/>
  <rect x="32" y="244" width="896" height="8" fill="#51445E"/>
  <rect x="112" y="256" width="736" height="16" fill="#0D0B12"/>
  <rect x="352" y="224" width="256" height="20" fill="#0D0B12"/>
  <rect x="304" y="60" width="368" height="188" fill="#0D0B12"/>
  <rect x="296" y="52" width="368" height="188" fill="#51445E"/>
  <rect x="302" y="58" width="356" height="176" fill="#32283F"/>
  <rect x="320" y="76" width="320" height="124" fill="#0D0B12"/>
  <rect x="328" y="84" width="304" height="108" fill="#272034"/>
  <rect x="336" y="92" width="288" height="92" fill="#467E72"/>
  <rect x="344" y="100" width="272" height="76" fill="#15131A"/>
  <text class="label" x="480" y="130" text-anchor="middle" font-size="52" fill="#F2D6A2">LD000</text>
  <text class="small" x="480" y="160" text-anchor="middle" font-size="16" fill="#8FD6C2">RUST / GAMES / TOOLS / NOTES</text>
  <rect x="360" y="176" width="72" height="4" fill="#F28F6B"/>
  <rect x="444" y="176" width="88" height="4" fill="#8FD6C2"/>
  <rect x="544" y="176" width="56" height="4" fill="#BFA77E"/>
  <rect x="424" y="204" width="112" height="16" fill="#0D0B12"/>
  <rect x="384" y="228" width="192" height="12" fill="#3B3149"/>
  <rect x="392" y="232" width="176" height="4" fill="#6E5A7E"/>
  <rect x="96" y="192" width="120" height="12" fill="#51445E"/>
  <rect x="112" y="176" width="88" height="16" fill="#F28F6B"/>
  <rect x="124" y="160" width="64" height="16" fill="#F2D6A2"/>
  <rect x="136" y="144" width="40" height="16" fill="#6E5A7E"/>
  <rect x="160" y="92" width="12" height="52" fill="#51445E"/>
  <rect x="124" y="76" width="72" height="20" fill="#F28F6B"/>
  <rect x="132" y="84" width="56" height="8" fill="#F2D6A2"/>
  <rect x="192" y="252" width="120" height="24" fill="#0D0B12"/>
  <rect x="204" y="236" width="96" height="16" fill="#3B3149"/>
  <rect x="212" y="240" width="32" height="4" fill="#8FD6C2"/>
  <rect x="252" y="240" width="32" height="4" fill="#BFA77E"/>
  <rect x="724" y="224" width="92" height="40" fill="#0D0B12"/>
  <rect x="736" y="204" width="68" height="20" fill="#3B3149"/>
  <rect x="748" y="212" width="44" height="4" fill="#8FD6C2"/>
  <rect x="824" y="252" width="44" height="24" fill="#8E4F4C"/>
  <rect x="832" y="240" width="28" height="12" fill="#F2D6A2"/>
  <rect x="704" y="72" width="176" height="128" fill="#0D0B12"/>
  <rect x="696" y="64" width="176" height="128" fill="#51445E"/>
  <rect x="702" y="70" width="164" height="116" fill="#32283F"/>
  <text class="small" x="724" y="96" text-anchor="start" font-size="18" fill="#F2D6A2">STATUS</text>
  <text class="small" x="724" y="124" text-anchor="start" font-size="15" fill="#8FD6C2">REPOS 57</text>
  <text class="small" x="724" y="148" text-anchor="start" font-size="15" fill="#8FD6C2">STARS 27</text>
  <text class="small" x="724" y="172" text-anchor="start" font-size="15" fill="#8FD6C2">FOLLOWERS 17</text>
  <rect x="328" y="268" width="320" height="36" fill="#0D0B12"/>
  <rect x="320" y="260" width="320" height="36" fill="#51445E"/>
  <rect x="326" y="266" width="308" height="24" fill="#32283F"/>
  <text class="small" x="480" y="284" text-anchor="middle" font-size="15" fill="#F2D6A2">QUEST: BLOG-HUGO</text>
  <text class="small" x="816" y="292" text-anchor="middle" font-size="13" fill="#BFA77E">SYNC 05-16 04:40 CST</text>
</svg>
