<svg width="960" height="320" viewBox="0 0 960 320" fill="none" xmlns="http://www.w3.org/2000/svg" role="img" aria-labelledby="title desc">
  <title id="title">ld000 pixel game banner</title>
  <desc id="desc">A retro pixel art night scene with ld000 as the player name.</desc>
  <style>
    .label { font-family: "Courier New", monospace; font-weight: 700; }
    .tiny { font-family: "Courier New", monospace; font-weight: 700; font-size: 18px; }
  </style>

  <rect width="960" height="320" fill="#191724"/>
  <rect y="242" width="960" height="78" fill="#26233a"/>
  <rect y="258" width="960" height="14" fill="#31748f"/>
  <rect y="286" width="960" height="34" fill="#1f1d2e"/>

  <rect x="0" y="0" width="960" height="14" fill="#eb6f92"/>
  <rect x="0" y="14" width="960" height="8" fill="#f6c177"/>
  <rect x="0" y="298" width="960" height="8" fill="#f6c177"/>
  <rect x="0" y="306" width="960" height="14" fill="#eb6f92"/>

  <rect x="70" y="48" width="12" height="12" fill="#f6c177"/>
  <rect x="106" y="84" width="8" height="8" fill="#e0def4"/>
  <rect x="154" y="42" width="8" height="8" fill="#e0def4"/>
  <rect x="818" y="54" width="10" height="10" fill="#f6c177"/>
  <rect x="876" y="92" width="8" height="8" fill="#e0def4"/>
  <rect x="736" y="34" width="6" height="6" fill="#e0def4"/>

  <rect x="790" y="40" width="48" height="48" fill="#f6c177"/>
  <rect x="778" y="52" width="12" height="24" fill="#f6c177"/>
  <rect x="838" y="52" width="12" height="24" fill="#f6c177"/>
  <rect x="802" y="52" width="12" height="12" fill="#191724"/>
  <rect x="826" y="52" width="12" height="12" fill="#191724"/>
  <rect x="814" y="76" width="12" height="12" fill="#191724"/>

  <rect x="54" y="206" width="52" height="36" fill="#403d52"/>
  <rect x="118" y="174" width="64" height="68" fill="#403d52"/>
  <rect x="194" y="196" width="50" height="46" fill="#403d52"/>
  <rect x="714" y="190" width="62" height="52" fill="#403d52"/>
  <rect x="790" y="160" width="58" height="82" fill="#403d52"/>
  <rect x="864" y="204" width="44" height="38" fill="#403d52"/>

  <rect x="130" y="188" width="10" height="10" fill="#9ccfd8"/>
  <rect x="154" y="188" width="10" height="10" fill="#9ccfd8"/>
  <rect x="802" y="174" width="10" height="10" fill="#9ccfd8"/>
  <rect x="826" y="174" width="10" height="10" fill="#9ccfd8"/>
  <rect x="802" y="202" width="10" height="10" fill="#9ccfd8"/>
  <rect x="826" y="202" width="10" height="10" fill="#9ccfd8"/>

  <rect x="86" y="252" width="24" height="24" fill="#eb6f92"/>
  <rect x="110" y="252" width="24" height="24" fill="#f6c177"/>
  <rect x="134" y="252" width="24" height="24" fill="#eb6f92"/>
  <rect x="110" y="228" width="24" height="24" fill="#f6c177"/>
  <rect x="110" y="276" width="24" height="24" fill="#6e6a86"/>
  <rect x="86" y="276" width="24" height="14" fill="#9ccfd8"/>
  <rect x="134" y="276" width="24" height="14" fill="#9ccfd8"/>
  <rect x="92" y="240" width="12" height="12" fill="#191724"/>
  <rect x="140" y="240" width="12" height="12" fill="#191724"/>

  <rect x="648" y="236" width="26" height="26" fill="#f6c177"/>
  <rect x="654" y="242" width="14" height="14" fill="#191724"/>
  <rect x="690" y="212" width="26" height="26" fill="#f6c177"/>
  <rect x="696" y="218" width="14" height="14" fill="#191724"/>
  <rect x="732" y="236" width="26" height="26" fill="#f6c177"/>
  <rect x="738" y="242" width="14" height="14" fill="#191724"/>

  <rect x="246" y="58" width="468" height="130" fill="#1f1d2e"/>
  <rect x="258" y="70" width="444" height="106" fill="#26233a"/>
  <rect x="246" y="58" width="468" height="8" fill="#f6c177"/>
  <rect x="246" y="180" width="468" height="8" fill="#eb6f92"/>
  <rect x="246" y="58" width="8" height="130" fill="#eb6f92"/>
  <rect x="706" y="58" width="8" height="130" fill="#eb6f92"/>

  <text class="label" x="480" y="120" text-anchor="middle" fill="#e0def4" font-size="64">LD000</text>
  <text class="tiny" x="480" y="154" text-anchor="middle" fill="#9ccfd8">RUST  GAMES  TOOLS  NOTES</text>

  <rect x="324" y="208" width="312" height="34" fill="#191724"/>
  <rect x="332" y="216" width="296" height="18" fill="#ebbcba"/>
  <text class="tiny" x="480" y="232" text-anchor="middle" fill="#191724">PRESS START</text>

  <rect x="0" y="0" width="8" height="320" fill="#eb6f92"/>
  <rect x="952" y="0" width="8" height="320" fill="#eb6f92"/>
</svg>
