<svg width="960" height="320" viewBox="0 0 960 320" fill="none" xmlns="http://www.w3.org/2000/svg" role="img" aria-labelledby="title desc">
  <title id="title">ld000 pixel profile title screen</title>
  <desc id="desc">A clean pixel arcade profile banner with GitHub counters.</desc>
  <style>
    .label { font-family: "Courier New", monospace; font-weight: 700; }
    .small { font-family: "Courier New", monospace; font-weight: 700; }
  </style>
  <rect x="0" y="0" width="960" height="320" fill="#071a1a"/>
  <rect x="0" y="252" width="960" height="68" fill="#041010"/>
  <rect x="0" y="268" width="960" height="12" fill="#1f5f5b"/>
  <rect x="0" y="296" width="960" height="24" fill="#0d2b2e"/>
  <rect x="0" y="0" width="960" height="10" fill="#6fffd2"/>
  <rect x="0" y="10" width="960" height="8" fill="#ffd166"/>
  <rect x="0" y="302" width="960" height="8" fill="#ffd166"/>
  <rect x="0" y="310" width="960" height="10" fill="#ff6b6b"/>
  <rect x="70" y="48" width="12" height="12" fill="#ffd166"/>
  <rect x="106" y="84" width="8" height="8" fill="#f8f5dc"/>
  <rect x="154" y="42" width="8" height="8" fill="#f8f5dc"/>
  <rect x="818" y="54" width="10" height="10" fill="#6fffd2"/>
  <rect x="876" y="92" width="8" height="8" fill="#f8f5dc"/>
  <rect x="736" y="34" width="6" height="6" fill="#f8f5dc"/>
  <rect x="902" y="42" width="6" height="6" fill="#46d9ff"/>
  <rect x="48" y="120" width="6" height="6" fill="#46d9ff"/>
  <rect x="780" y="38" width="58" height="50" fill="#ffd166"/>
  <rect x="768" y="50" width="12" height="26" fill="#ffd166"/>
  <rect x="838" y="50" width="12" height="26" fill="#ffd166"/>
  <rect x="802" y="52" width="12" height="12" fill="#071a1a"/>
  <rect x="826" y="52" width="12" height="12" fill="#071a1a"/>
  <rect x="814" y="74" width="12" height="8" fill="#071a1a"/>
  <rect x="54" y="212" width="54" height="40" fill="#12383d"/>
  <rect x="120" y="178" width="64" height="74" fill="#12383d"/>
  <rect x="196" y="202" width="52" height="50" fill="#12383d"/>
  <rect x="712" y="194" width="64" height="58" fill="#12383d"/>
  <rect x="790" y="166" width="58" height="86" fill="#12383d"/>
  <rect x="864" y="210" width="44" height="42" fill="#12383d"/>
  <rect x="132" y="192" width="10" height="10" fill="#6fffd2"/>
  <rect x="156" y="192" width="10" height="10" fill="#46d9ff"/>
  <rect x="802" y="180" width="10" height="10" fill="#6fffd2"/>
  <rect x="826" y="180" width="10" height="10" fill="#46d9ff"/>
  <rect x="802" y="208" width="10" height="10" fill="#46d9ff"/>
  <rect x="826" y="208" width="10" height="10" fill="#6fffd2"/>
  <rect x="86" y="252" width="24" height="24" fill="#ff6b6b"/>
  <rect x="110" y="252" width="24" height="24" fill="#ffd166"/>
  <rect x="134" y="252" width="24" height="24" fill="#ff6b6b"/>
  <rect x="110" y="228" width="24" height="24" fill="#6fffd2"/>
  <rect x="110" y="276" width="24" height="24" fill="#6b8f89"/>
  <rect x="86" y="276" width="24" height="14" fill="#46d9ff"/>
  <rect x="134" y="276" width="24" height="14" fill="#46d9ff"/>
  <rect x="92" y="240" width="12" height="12" fill="#071a1a"/>
  <rect x="140" y="240" width="12" height="12" fill="#071a1a"/>
  <rect x="648" y="236" width="26" height="26" fill="#ffd166"/>
  <rect x="654" y="242" width="14" height="14" fill="#071a1a"/>
  <rect x="690" y="212" width="26" height="26" fill="#ffd166"/>
  <rect x="696" y="218" width="14" height="14" fill="#071a1a"/>
  <rect x="732" y="236" width="26" height="26" fill="#ffd166"/>
  <rect x="738" y="242" width="14" height="14" fill="#071a1a"/>
  <rect x="238" y="46" width="484" height="166" fill="#041010"/>
  <rect x="246" y="38" width="468" height="166" fill="#0d2b2e"/>
  <rect x="258" y="50" width="444" height="142" fill="#12383d"/>
  <rect x="246" y="38" width="468" height="8" fill="#6fffd2"/>
  <rect x="246" y="196" width="468" height="8" fill="#ff6b6b"/>
  <rect x="246" y="38" width="8" height="166" fill="#ffd166"/>
  <rect x="706" y="38" width="8" height="166" fill="#ffd166"/>
  <rect x="282" y="70" width="22" height="8" fill="#6fffd2"/>
  <rect x="656" y="70" width="22" height="8" fill="#ff6b6b"/>
  <text class="label" x="480" y="108" text-anchor="middle" font-size="60" fill="#f8f5dc">LD000</text>
  <text class="small" x="480" y="142" text-anchor="middle" font-size="18" fill="#6fffd2">RUST  GAMES  TOOLS  NOTES</text>
  <text class="small" x="332" y="174" text-anchor="start" font-size="16" fill="#ffd166">REPOS 57</text>
  <text class="small" x="488" y="174" text-anchor="middle" font-size="16" fill="#ffd166">STARS 27</text>
  <text class="small" x="682" y="174" text-anchor="end" font-size="16" fill="#ffd166">FOLLOWERS 17</text>
  <rect x="304" y="218" width="352" height="40" fill="#041010"/>
  <rect x="316" y="228" width="328" height="18" fill="#6fffd2"/>
  <text class="small" x="480" y="240" text-anchor="middle" font-size="17" fill="#071a1a">LATEST QUEST: BLOG-HUGO</text>
  <text class="small" x="480" y="282" text-anchor="middle" font-size="14" fill="#f8f5dc">SYNC 05-15 22:52 CST</text>
  <rect x="0" y="0" width="8" height="320" fill="#6fffd2"/>
  <rect x="952" y="0" width="8" height="320" fill="#ff6b6b"/>
</svg>
