<svg width="960" height="360" viewBox="0 0 960 360" fill="none" xmlns="http://www.w3.org/2000/svg" role="img" aria-labelledby="title desc">
  <title id="title">ld000 pixel status board</title>
  <desc id="desc">A clean pixel style status board generated from public GitHub profile data.</desc>
  <style>
    .label { font-family: "Courier New", monospace; font-weight: 700; }
    .small { font-family: "Courier New", monospace; font-weight: 700; }
  </style>
  <rect x="0" y="0" width="960" height="360" fill="#071a1a"/>
  <rect x="12" y="12" width="936" height="336" fill="#041010"/>
  <rect x="22" y="22" width="916" height="316" fill="#0d2b2e"/>
  <rect x="36" y="36" width="888" height="288" fill="#12383d"/>
  <rect x="22" y="22" width="916" height="8" fill="#6fffd2"/>
  <rect x="22" y="330" width="916" height="8" fill="#ff6b6b"/>
  <rect x="22" y="22" width="8" height="316" fill="#ffd166"/>
  <rect x="930" y="22" width="8" height="316" fill="#ffd166"/>
  <rect x="62" y="52" width="18" height="18" fill="#6fffd2"/>
  <rect x="86" y="52" width="18" height="18" fill="#ffd166"/>
  <rect x="110" y="52" width="18" height="18" fill="#ff6b6b"/>
  <text class="label" x="54" y="104" text-anchor="start" font-size="27" fill="#ffd166">[ SAVE SLOT STATUS ]</text>
  <text class="small" x="54" y="132" text-anchor="start" font-size="16" fill="#6fffd2">AUTO-GENERATED FROM PUBLIC GITHUB DATA</text>
  <rect x="54" y="158" width="112" height="70" fill="#041010"/>
  <rect x="62" y="166" width="96" height="54" fill="#0d2b2e"/>
  <rect x="62" y="166" width="96" height="6" fill="#1f5f5b"/>
  <text class="small" x="110" y="188" text-anchor="middle" font-size="15" fill="#6fffd2">REPOS</text>
  <text class="label" x="110" y="212" text-anchor="middle" font-size="24" fill="#ffd166">57</text>
  <rect x="190" y="158" width="112" height="70" fill="#041010"/>
  <rect x="198" y="166" width="96" height="54" fill="#0d2b2e"/>
  <rect x="198" y="166" width="96" height="6" fill="#1f5f5b"/>
  <text class="small" x="246" y="188" text-anchor="middle" font-size="15" fill="#6fffd2">STARS</text>
  <text class="label" x="246" y="212" text-anchor="middle" font-size="24" fill="#ffd166">27</text>
  <rect x="326" y="158" width="112" height="70" fill="#041010"/>
  <rect x="334" y="166" width="96" height="54" fill="#0d2b2e"/>
  <rect x="334" y="166" width="96" height="6" fill="#1f5f5b"/>
  <text class="small" x="382" y="188" text-anchor="middle" font-size="15" fill="#6fffd2">FOLLOWERS</text>
  <text class="label" x="382" y="212" text-anchor="middle" font-size="24" fill="#ffd166">17</text>
  <text class="label" x="54" y="256" text-anchor="start" font-size="20" fill="#ff6b6b">LATEST QUESTS</text>
  <rect x="60" y="268" width="12" height="12" fill="#ffd166"/>
  <text class="small" x="84" y="282" text-anchor="start" font-size="17" fill="#f8f5dc">blog-hugo</text>
  <text class="small" x="318" y="282" text-anchor="start" font-size="16" fill="#6fffd2">SCSS  *0</text>
  <rect x="60" y="288" width="12" height="12" fill="#6b8f89"/>
  <text class="small" x="84" y="302" text-anchor="start" font-size="17" fill="#f8f5dc">pokemind-agent</text>
  <text class="small" x="318" y="302" text-anchor="start" font-size="16" fill="#6fffd2">Unknown  *0</text>
  <rect x="60" y="308" width="12" height="12" fill="#6b8f89"/>
  <text class="small" x="84" y="322" text-anchor="start" font-size="17" fill="#f8f5dc">silksong_tutorial</text>
  <text class="small" x="318" y="322" text-anchor="start" font-size="16" fill="#6fffd2">GDScript  *0</text>
  <rect x="512" y="54" width="396" height="236" fill="#041010"/>
  <rect x="524" y="66" width="372" height="212" fill="#0d2b2e"/>
  <text class="label" x="548" y="104" text-anchor="start" font-size="24" fill="#ff6b6b">LANGUAGE MAP</text>
  <text class="small" x="548" y="136" text-anchor="start" font-size="15" fill="#f8f5dc">Rust</text>
  <rect x="674" y="122" width="236" height="16" fill="#071a1a"/>
  <rect x="678" y="126" width="200" height="8" fill="#ffd166"/>
  <text class="small" x="888" y="136" text-anchor="end" font-size="14" fill="#ffd166">8</text>
  <text class="small" x="548" y="166" text-anchor="start" font-size="15" fill="#f8f5dc">Python</text>
  <rect x="674" y="152" width="236" height="16" fill="#071a1a"/>
  <rect x="678" y="156" width="175" height="8" fill="#46d9ff"/>
  <text class="small" x="888" y="166" text-anchor="end" font-size="14" fill="#ffd166">7</text>
  <text class="small" x="548" y="196" text-anchor="start" font-size="15" fill="#f8f5dc">JavaScript</text>
  <rect x="674" y="182" width="236" height="16" fill="#071a1a"/>
  <rect x="678" y="186" width="175" height="8" fill="#f8f5dc"/>
  <text class="small" x="888" y="196" text-anchor="end" font-size="14" fill="#ffd166">7</text>
  <text class="small" x="548" y="226" text-anchor="start" font-size="15" fill="#f8f5dc">Java</text>
  <rect x="674" y="212" width="236" height="16" fill="#071a1a"/>
  <rect x="678" y="216" width="175" height="8" fill="#ffb86b"/>
  <text class="small" x="888" y="226" text-anchor="end" font-size="14" fill="#ffd166">7</text>
  <text class="small" x="548" y="256" text-anchor="start" font-size="15" fill="#f8f5dc">Shell</text>
  <rect x="674" y="242" width="236" height="16" fill="#071a1a"/>
  <rect x="678" y="246" width="100" height="8" fill="#6fffd2"/>
  <text class="small" x="888" y="256" text-anchor="end" font-size="14" fill="#ffd166">4</text>
  <text class="small" x="548" y="286" text-anchor="start" font-size="15" fill="#f8f5dc">HTML</text>
  <rect x="674" y="272" width="236" height="16" fill="#071a1a"/>
  <rect x="678" y="276" width="50" height="8" fill="#ff6b6b"/>
  <text class="small" x="888" y="286" text-anchor="end" font-size="14" fill="#ffd166">2</text>
  <rect x="524" y="300" width="372" height="28" fill="#041010"/>
  <rect x="536" y="308" width="348" height="12" fill="#6fffd2"/>
  <text class="small" x="548" y="324" text-anchor="start" font-size="14" fill="#ffd166">SYNC: 05-15 22:52 CST</text>
</svg>
