<svg width="960" height="320" viewBox="0 0 960 320" fill="none" xmlns="http://www.w3.org/2000/svg" role="img" aria-labelledby="title desc">
  <title id="title">ld000 pixel profile title screen</title>
  <desc id="desc">A cozy pixel developer room with a night desk, terminal, and GitHub counters.</desc>
  <style>
    .label { font-family: "Courier New", monospace; font-weight: 700; }
    .small { font-family: "Courier New", monospace; font-weight: 700; }
  </style>
  <rect x="0" y="0" width="960" height="320" fill="#101622"/>
  <rect x="24" y="24" width="912" height="248" fill="#18243B"/>
  <rect x="32" y="32" width="896" height="232" fill="#0B1020"/>
  <rect x="0" y="228" width="960" height="92" fill="#8A5A3C"/>
  <rect x="0" y="252" width="960" height="68" fill="#6F432D"/>
  <rect x="32" y="228" width="896" height="8" fill="#B17647"/>
  <rect x="72" y="264" width="816" height="18" fill="#070B12"/>
  <rect x="72" y="56" width="248" height="148" fill="#070B12"/>
  <rect x="64" y="48" width="248" height="148" fill="#3D4E68"/>
  <rect x="70" y="54" width="236" height="136" fill="#24344F"/>
  <rect x="84" y="68" width="208" height="104" fill="#070B12"/>
  <rect x="92" y="76" width="192" height="88" fill="#0C1830"/>
  <rect x="184" y="76" width="4" height="88" fill="#3D4E68"/>
  <rect x="92" y="116" width="192" height="4" fill="#3D4E68"/>
  <rect x="240" y="84" width="20" height="20" fill="#E9DCC9"/>
  <rect x="236" y="84" width="8" height="8" fill="#0C1830"/>
  <rect x="116" y="92" width="6" height="6" fill="#64D2FF"/>
  <rect x="144" y="104" width="4" height="4" fill="#E9DCC9"/>
  <rect x="268" y="132" width="4" height="4" fill="#64D2FF"/>
  <polygon points="130,120 158,108 198,108 222,120 194,132 154,132" fill="#287A95"/>
  <rect x="160" y="112" width="32" height="8" fill="#64D2FF"/>
  <rect x="130" y="124" width="16" height="4" fill="#FFD166"/>
  <rect x="224" y="124" width="20" height="4" fill="#FFD166"/>
  <rect x="108" y="144" width="28" height="20" fill="#18243B"/>
  <rect x="140" y="136" width="28" height="28" fill="#2E405E"/>
  <rect x="172" y="148" width="36" height="16" fill="#18243B"/>
  <rect x="216" y="132" width="32" height="32" fill="#2E405E"/>
  <rect x="116" y="148" width="4" height="4" fill="#64D2FF"/>
  <rect x="148" y="144" width="4" height="8" fill="#287A95"/>
  <rect x="224" y="140" width="4" height="4" fill="#64D2FF"/>
  <rect x="96" y="216" width="116" height="12" fill="#5F3B28"/>
  <rect x="116" y="200" width="72" height="16" fill="#FF9B71"/>
  <rect x="128" y="188" width="48" height="12" fill="#E9DCC9"/>
  <rect x="144" y="172" width="20" height="16" fill="#6F7B91"/>
  <rect x="156" y="132" width="8" height="40" fill="#3D4E68"/>
  <polygon points="120,112 204,112 188,132 136,132" fill="#FFD166"/>
  <rect x="136" y="120" width="52" height="8" fill="#E9DCC9"/>
  <rect x="86" y="244" width="100" height="16" fill="#070B12"/>
  <rect x="96" y="224" width="72" height="20" fill="#2E405E"/>
  <rect x="104" y="232" width="24" height="4" fill="#64D2FF"/>
  <rect x="136" y="232" width="20" height="4" fill="#E9DCC9"/>
  <rect x="216" y="244" width="40" height="24" fill="#070B12"/>
  <rect x="224" y="224" width="24" height="20" fill="#8A5A3C"/>
  <rect x="228" y="216" width="16" height="8" fill="#E9DCC9"/>
  <rect x="254" y="244" width="80" height="12" fill="#070B12"/>
  <rect x="274" y="222" width="40" height="24" fill="#2E405E"/>
  <rect x="290" y="202" width="8" height="20" fill="#6BCB77"/>
  <rect x="278" y="194" width="16" height="12" fill="#6BCB77"/>
  <rect x="298" y="194" width="16" height="12" fill="#6BCB77"/>
  <rect x="314" y="234" width="8" height="12" fill="#3D4E68"/>
  <rect x="726" y="244" width="104" height="16" fill="#070B12"/>
  <rect x="740" y="222" width="68" height="24" fill="#2E405E"/>
  <rect x="752" y="230" width="44" height="4" fill="#64D2FF"/>
  <rect x="836" y="244" width="48" height="24" fill="#8A5A3C"/>
  <rect x="844" y="232" width="28" height="12" fill="#E9DCC9"/>
  <rect x="614" y="246" width="56" height="4" fill="#3D4E68"/>
  <rect x="666" y="246" width="8" height="8" fill="#3D4E68"/>
  <rect x="674" y="254" width="64" height="4" fill="#3D4E68"/>
  <rect x="344" y="60" width="304" height="176" fill="#070B12"/>
  <rect x="336" y="52" width="304" height="176" fill="#3D4E68"/>
  <rect x="342" y="58" width="292" height="164" fill="#24344F"/>
  <rect x="360" y="76" width="256" height="104" fill="#070B12"/>
  <rect x="368" y="84" width="240" height="88" fill="#287A95"/>
  <rect x="376" y="92" width="224" height="72" fill="#101622"/>
  <text class="label" x="488" y="124" text-anchor="middle" font-size="50" fill="#E9DCC9">LD000</text>
  <text class="small" x="488" y="154" text-anchor="middle" font-size="15" fill="#64D2FF">RUST / GAMES / TOOLS / NOTES</text>
  <rect x="392" y="170" width="56" height="4" fill="#FF9B71"/>
  <rect x="460" y="170" width="84" height="4" fill="#64D2FF"/>
  <rect x="556" y="170" width="36" height="4" fill="#E9DCC9"/>
  <rect x="438" y="190" width="100" height="20" fill="#070B12"/>
  <rect x="394" y="214" width="188" height="14" fill="#2E405E"/>
  <rect x="402" y="220" width="172" height="4" fill="#6F7B91"/>
  <rect x="660" y="56" width="224" height="136" fill="#070B12"/>
  <rect x="660" y="56" width="216" height="128" fill="#24344F"/>
  <rect x="660" y="56" width="216" height="8" fill="#3D4E68"/>
  <rect x="660" y="176" width="216" height="8" fill="#3D4E68"/>
  <rect x="668" y="72" width="52" height="36" fill="#E9DCC9"/>
  <rect x="728" y="72" width="60" height="36" fill="#FFE6A7"/>
  <rect x="796" y="72" width="52" height="36" fill="#E9DCC9"/>
  <rect x="676" y="84" width="32" height="4" fill="#3D4E68"/>
  <rect x="736" y="84" width="36" height="4" fill="#3D4E68"/>
  <rect x="804" y="84" width="28" height="4" fill="#3D4E68"/>
  <text class="small" x="688" y="128" text-anchor="start" font-size="17" fill="#E9DCC9">STATUS</text>
  <text class="small" x="688" y="150" text-anchor="start" font-size="14" fill="#64D2FF">REPOS 57</text>
  <text class="small" x="776" y="150" text-anchor="start" font-size="14" fill="#64D2FF">STARS 27</text>
  <text class="small" x="688" y="170" text-anchor="start" font-size="14" fill="#64D2FF">FOLLOWERS 17</text>
  <rect x="844" y="104" width="12" height="52" fill="#3D4E68"/>
  <rect x="836" y="156" width="28" height="12" fill="#FFD166"/>
  <rect x="840" y="168" width="20" height="12" fill="#E9DCC9"/>
  <rect x="328" y="260" width="320" height="40" fill="#070B12"/>
  <rect x="320" y="252" width="320" height="40" fill="#3D4E68"/>
  <rect x="326" y="258" width="308" height="28" fill="#24344F"/>
  <rect x="340" y="264" width="12" height="12" fill="#FFD166"/>
  <text class="small" x="488" y="278" text-anchor="middle" font-size="15" fill="#E9DCC9">QUEST: BLOG-HUGO</text>
  <text class="small" x="812" y="292" text-anchor="middle" font-size="13" fill="#E9DCC9">SYNC 05-16 20:37 CST</text>
</svg>
